<?xml version="1.0" standalone="no"?>
<!DOCTYPE svg PUBLIC "-//W3C//DTD SVG 20010904//EN"
 "http://www.w3.org/TR/2001/REC-SVG-20010904/DTD/svg10.dtd">
<svg version="1.0" xmlns="http://www.w3.org/2000/svg"
 width="500.000000pt" height="500.000000pt" viewBox="0 0 500.000000 500.000000"
 preserveAspectRatio="xMidYMid meet">
<metadata>
Created by potrace 1.14, written by Peter Selinger 2001-2017
</metadata>
<g transform="translate(0.000000,500.000000) scale(0.100000,-0.100000)"
fill="#000000" stroke="none">
<path d="M0 2500 l0 -2500 2500 0 2500 0 0 2500 0 2500 -2500 0 -2500 0 0
-2500z m2308 1255 c113 -16 313 -62 392 -90 73 -26 180 -77 180 -87 0 -7 -257
-528 -266 -537 -2 -2 -45 15 -96 37 -186 81 -308 106 -483 100 -141 -4 -184
-20 -210 -75 -34 -72 -8 -146 70 -193 33 -20 224 -88 325 -116 177 -49 383
-158 501 -266 135 -123 209 -307 209 -519 l0 -92 35 70 c25 51 56 90 109 141
121 115 247 161 409 149 148 -11 248 -59 356 -171 254 -266 172 -696 -165
-858 l-89 -43 -140 0 -140 0 -85 41 c-187 90 -293 240 -315 449 l-8 70 -12
-35 c-95 -268 -312 -425 -698 -502 -98 -20 -143 -23 -367 -23 -177 0 -276 4
-325 14 -216 42 -463 145 -587 243 -37 29 -68 56 -68 60 0 8 317 546 331 562
4 5 38 -15 76 -43 78 -59 244 -146 353 -186 138 -50 313 -44 381 12 58 49 76
130 44 194 -30 56 -79 83 -340 184 -215 84 -360 171 -490 297 -129 123 -174
224 -182 409 -11 227 49 391 192 534 148 146 327 227 600 269 122 19 370 19
503 1z"/>
</g>
</svg>
